<mxfile host="app.diagrams.net" agent="Mozilla/5.0 (Windows NT 10.0; Win64; x64; rv:132.0) Gecko/20100101 Firefox/132.0" version="24.7.16">
  <diagram name="Page-1" id="u7R0kimIFn647H0iLHvp">
    <mxGraphModel dx="1434" dy="1151" grid="0" gridSize="10" guides="1" tooltips="1" connect="1" arrows="1" fold="1" page="0" pageScale="1" pageWidth="850" pageHeight="1100" math="0" shadow="0">
      <root>
        <mxCell id="0" />
        <mxCell id="1" parent="0" />
        <mxCell id="XFEuG9OW1rMIU-cKfboV-52" value="" style="whiteSpace=wrap;html=1;aspect=fixed;dashed=1;fillColor=none;" vertex="1" parent="1">
          <mxGeometry x="-5" y="-234" width="627" height="627" as="geometry" />
        </mxCell>
        <mxCell id="XFEuG9OW1rMIU-cKfboV-1" value="" style="outlineConnect=0;dashed=0;verticalLabelPosition=bottom;verticalAlign=top;align=center;html=1;shape=mxgraph.aws3.elastic_beanstalk;fillColor=#F58534;gradientColor=none;" vertex="1" parent="1">
          <mxGeometry x="15" y="22" width="67.5" height="93" as="geometry" />
        </mxCell>
        <mxCell id="XFEuG9OW1rMIU-cKfboV-2" value="" style="outlineConnect=0;dashed=0;verticalLabelPosition=bottom;verticalAlign=top;align=center;html=1;shape=mxgraph.aws3.s3;fillColor=#E05243;gradientColor=none;" vertex="1" parent="1">
          <mxGeometry x="174" y="-127" width="76.5" height="93" as="geometry" />
        </mxCell>
        <mxCell id="XFEuG9OW1rMIU-cKfboV-3" value="" style="sketch=0;points=[[0,0,0],[0.25,0,0],[0.5,0,0],[0.75,0,0],[1,0,0],[0,1,0],[0.25,1,0],[0.5,1,0],[0.75,1,0],[1,1,0],[0,0.25,0],[0,0.5,0],[0,0.75,0],[1,0.25,0],[1,0.5,0],[1,0.75,0]];outlineConnect=0;fontColor=#232F3E;fillColor=#C925D1;strokeColor=#ffffff;dashed=0;verticalLabelPosition=bottom;verticalAlign=top;align=center;html=1;fontSize=12;fontStyle=0;aspect=fixed;shape=mxgraph.aws4.resourceIcon;resIcon=mxgraph.aws4.dynamodb;" vertex="1" parent="1">
          <mxGeometry x="351.25" y="228" width="78" height="78" as="geometry" />
        </mxCell>
        <mxCell id="XFEuG9OW1rMIU-cKfboV-4" value="" style="outlineConnect=0;dashed=0;verticalLabelPosition=bottom;verticalAlign=top;align=center;html=1;shape=mxgraph.aws3.rds;fillColor=#2E73B8;gradientColor=none;" vertex="1" parent="1">
          <mxGeometry x="354.25" y="61" width="72" height="81" as="geometry" />
        </mxCell>
        <mxCell id="XFEuG9OW1rMIU-cKfboV-5" value="" style="outlineConnect=0;dashed=0;verticalLabelPosition=bottom;verticalAlign=top;align=center;html=1;shape=mxgraph.aws3.ec2;fillColor=#F58534;gradientColor=none;" vertex="1" parent="1">
          <mxGeometry x="174" y="127.66" width="76.5" height="93" as="geometry" />
        </mxCell>
        <mxCell id="XFEuG9OW1rMIU-cKfboV-6" value="" style="outlineConnect=0;dashed=0;verticalLabelPosition=bottom;verticalAlign=top;align=center;html=1;shape=mxgraph.aws3.lambda;fillColor=#F58534;gradientColor=none;" vertex="1" parent="1">
          <mxGeometry x="-175.39000000000004" y="348" width="76.5" height="93" as="geometry" />
        </mxCell>
        <mxCell id="XFEuG9OW1rMIU-cKfboV-7" value="" style="outlineConnect=0;dashed=0;verticalLabelPosition=bottom;verticalAlign=top;align=center;html=1;shape=mxgraph.aws3.cloudwatch;fillColor=#759C3E;gradientColor=none;" vertex="1" parent="1">
          <mxGeometry x="730" y="17.599999999999987" width="82.5" height="93" as="geometry" />
        </mxCell>
        <mxCell id="XFEuG9OW1rMIU-cKfboV-9" value="" style="outlineConnect=0;dashed=0;verticalLabelPosition=bottom;verticalAlign=top;align=center;html=1;shape=mxgraph.aws3.cloudfront;fillColor=#F58536;gradientColor=none;" vertex="1" parent="1">
          <mxGeometry x="505" y="-127" width="76.5" height="93" as="geometry" />
        </mxCell>
        <mxCell id="XFEuG9OW1rMIU-cKfboV-11" style="edgeStyle=none;curved=1;rounded=0;orthogonalLoop=1;jettySize=auto;html=1;fontSize=12;startSize=8;endSize=8;exitX=1.01;exitY=0.104;exitDx=0;exitDy=0;exitPerimeter=0;entryX=0.5;entryY=0;entryDx=0;entryDy=0;entryPerimeter=0;" edge="1" parent="1" source="XFEuG9OW1rMIU-cKfboV-12" target="XFEuG9OW1rMIU-cKfboV-1">
          <mxGeometry relative="1" as="geometry">
            <mxPoint x="-21" y="70" as="sourcePoint" />
            <mxPoint x="32" y="22" as="targetPoint" />
          </mxGeometry>
        </mxCell>
        <mxCell id="XFEuG9OW1rMIU-cKfboV-12" value="" style="image;points=[];aspect=fixed;html=1;align=center;shadow=0;dashed=0;image=img/lib/allied_telesis/computer_and_terminals/Personal_Computer.svg;" vertex="1" parent="1">
          <mxGeometry x="-174" y="13.200000000000003" width="75.11" height="101.8" as="geometry" />
        </mxCell>
        <mxCell id="XFEuG9OW1rMIU-cKfboV-15" value="" style="verticalLabelPosition=bottom;html=1;verticalAlign=top;align=center;strokeColor=none;fillColor=#00BEF2;shape=mxgraph.azure.user;" vertex="1" parent="1">
          <mxGeometry x="-368" y="6.000000000000002" width="86.45" height="91" as="geometry" />
        </mxCell>
        <mxCell id="XFEuG9OW1rMIU-cKfboV-16" value="" style="endArrow=classic;html=1;rounded=0;fontSize=12;startSize=8;endSize=8;curved=1;exitX=0.87;exitY=0.65;exitDx=0;exitDy=0;exitPerimeter=0;" edge="1" parent="1" source="XFEuG9OW1rMIU-cKfboV-15" target="XFEuG9OW1rMIU-cKfboV-12">
          <mxGeometry width="50" height="50" relative="1" as="geometry">
            <mxPoint x="359" y="147" as="sourcePoint" />
            <mxPoint x="409" y="97" as="targetPoint" />
          </mxGeometry>
        </mxCell>
        <mxCell id="XFEuG9OW1rMIU-cKfboV-18" value="&lt;font style=&quot;font-size: 16px;&quot;&gt;User accesses web address through device&lt;/font&gt;" style="text;html=1;align=center;verticalAlign=middle;whiteSpace=wrap;rounded=0;fontSize=16;" vertex="1" parent="1">
          <mxGeometry x="-339" y="-113" width="191" height="103" as="geometry" />
        </mxCell>
        <mxCell id="XFEuG9OW1rMIU-cKfboV-20" value="" style="endArrow=none;html=1;rounded=0;fontSize=12;startSize=8;endSize=8;curved=1;exitX=0.5;exitY=1;exitDx=0;exitDy=0;" edge="1" parent="1" source="XFEuG9OW1rMIU-cKfboV-18">
          <mxGeometry width="50" height="50" relative="1" as="geometry">
            <mxPoint x="-236" y="40" as="sourcePoint" />
            <mxPoint x="-243" y="61" as="targetPoint" />
          </mxGeometry>
        </mxCell>
        <mxCell id="XFEuG9OW1rMIU-cKfboV-21" value="Device accesses Elastic Beanstalk instance" style="text;html=1;align=center;verticalAlign=middle;whiteSpace=wrap;rounded=0;fontSize=16;" vertex="1" parent="1">
          <mxGeometry x="-111" y="-151" width="115" height="103" as="geometry" />
        </mxCell>
        <mxCell id="XFEuG9OW1rMIU-cKfboV-22" value="" style="endArrow=none;html=1;rounded=0;fontSize=12;startSize=8;endSize=8;curved=1;exitX=0.5;exitY=1;exitDx=0;exitDy=0;" edge="1" parent="1" source="XFEuG9OW1rMIU-cKfboV-21">
          <mxGeometry width="50" height="50" relative="1" as="geometry">
            <mxPoint x="-39.94999999999999" y="-10" as="sourcePoint" />
            <mxPoint x="-53" y="23" as="targetPoint" />
          </mxGeometry>
        </mxCell>
        <mxCell id="XFEuG9OW1rMIU-cKfboV-23" value="" style="endArrow=classic;html=1;rounded=0;fontSize=12;startSize=8;endSize=8;curved=1;entryX=0;entryY=0.5;entryDx=0;entryDy=0;entryPerimeter=0;" edge="1" parent="1" source="XFEuG9OW1rMIU-cKfboV-1" target="XFEuG9OW1rMIU-cKfboV-5">
          <mxGeometry width="50" height="50" relative="1" as="geometry">
            <mxPoint x="79.5" y="127.00210526315792" as="sourcePoint" />
            <mxPoint x="139" y="109.66" as="targetPoint" />
          </mxGeometry>
        </mxCell>
        <mxCell id="XFEuG9OW1rMIU-cKfboV-24" value="" style="endArrow=classic;html=1;rounded=0;fontSize=12;startSize=8;endSize=8;curved=1;" edge="1" parent="1" source="XFEuG9OW1rMIU-cKfboV-1" target="XFEuG9OW1rMIU-cKfboV-2">
          <mxGeometry width="50" height="50" relative="1" as="geometry">
            <mxPoint x="96" y="58" as="sourcePoint" />
            <mxPoint x="181" y="143" as="targetPoint" />
          </mxGeometry>
        </mxCell>
        <mxCell id="XFEuG9OW1rMIU-cKfboV-25" value="An EC2 instance for computation" style="text;html=1;align=center;verticalAlign=middle;whiteSpace=wrap;rounded=0;fontSize=16;" vertex="1" parent="1">
          <mxGeometry x="14.5" y="242.66" width="183" height="103" as="geometry" />
        </mxCell>
        <mxCell id="XFEuG9OW1rMIU-cKfboV-26" value="" style="endArrow=none;html=1;rounded=0;fontSize=12;startSize=8;endSize=8;curved=1;" edge="1" parent="1" target="XFEuG9OW1rMIU-cKfboV-25">
          <mxGeometry width="50" height="50" relative="1" as="geometry">
            <mxPoint x="105" y="117" as="sourcePoint" />
            <mxPoint x="105" y="219.66" as="targetPoint" />
          </mxGeometry>
        </mxCell>
        <mxCell id="XFEuG9OW1rMIU-cKfboV-27" value="Access program files on S3" style="text;html=1;align=center;verticalAlign=middle;whiteSpace=wrap;rounded=0;fontSize=16;" vertex="1" parent="1">
          <mxGeometry x="41" y="-183" width="148" height="103" as="geometry" />
        </mxCell>
        <mxCell id="XFEuG9OW1rMIU-cKfboV-28" value="" style="endArrow=none;html=1;rounded=0;fontSize=12;startSize=8;endSize=8;curved=1;exitX=0.463;exitY=1.01;exitDx=0;exitDy=0;exitPerimeter=0;" edge="1" parent="1" source="XFEuG9OW1rMIU-cKfboV-27">
          <mxGeometry width="50" height="50" relative="1" as="geometry">
            <mxPoint x="109" y="-62" as="sourcePoint" />
            <mxPoint x="109" y="7" as="targetPoint" />
          </mxGeometry>
        </mxCell>
        <mxCell id="XFEuG9OW1rMIU-cKfboV-29" value="" style="endArrow=classic;html=1;rounded=0;fontSize=12;startSize=8;endSize=8;curved=1;entryX=0;entryY=0.5;entryDx=0;entryDy=0;entryPerimeter=0;exitX=1;exitY=0.5;exitDx=0;exitDy=0;exitPerimeter=0;" edge="1" parent="1" source="XFEuG9OW1rMIU-cKfboV-38" target="XFEuG9OW1rMIU-cKfboV-9">
          <mxGeometry width="50" height="50" relative="1" as="geometry">
            <mxPoint x="96" y="16" as="sourcePoint" />
            <mxPoint x="184" y="-45" as="targetPoint" />
          </mxGeometry>
        </mxCell>
        <mxCell id="XFEuG9OW1rMIU-cKfboV-30" value="CloudFront to serve images stored on s3" style="text;html=1;align=center;verticalAlign=middle;whiteSpace=wrap;rounded=0;fontSize=16;" vertex="1" parent="1">
          <mxGeometry x="368" y="-245" width="183" height="103" as="geometry" />
        </mxCell>
        <mxCell id="XFEuG9OW1rMIU-cKfboV-31" value="" style="endArrow=none;html=1;rounded=0;fontSize=12;startSize=8;endSize=8;curved=1;exitX=0.5;exitY=1;exitDx=0;exitDy=0;" edge="1" parent="1" source="XFEuG9OW1rMIU-cKfboV-30">
          <mxGeometry width="50" height="50" relative="1" as="geometry">
            <mxPoint x="123" y="-109" as="sourcePoint" />
            <mxPoint x="460" y="-79" as="targetPoint" />
          </mxGeometry>
        </mxCell>
        <mxCell id="XFEuG9OW1rMIU-cKfboV-32" value="" style="endArrow=classic;html=1;rounded=0;fontSize=12;startSize=8;endSize=8;curved=1;exitX=1;exitY=0.21;exitDx=0;exitDy=0;exitPerimeter=0;" edge="1" parent="1" source="XFEuG9OW1rMIU-cKfboV-5" target="XFEuG9OW1rMIU-cKfboV-4">
          <mxGeometry width="50" height="50" relative="1" as="geometry">
            <mxPoint x="261" y="-70" as="sourcePoint" />
            <mxPoint x="362" y="-70" as="targetPoint" />
          </mxGeometry>
        </mxCell>
        <mxCell id="XFEuG9OW1rMIU-cKfboV-33" value="RDS to store session data" style="text;html=1;align=center;verticalAlign=middle;whiteSpace=wrap;rounded=0;fontSize=16;" vertex="1" parent="1">
          <mxGeometry x="439" y="117.66" width="183" height="103" as="geometry" />
        </mxCell>
        <mxCell id="XFEuG9OW1rMIU-cKfboV-34" value="" style="endArrow=none;html=1;rounded=0;fontSize=12;startSize=8;endSize=8;curved=1;exitX=0;exitY=0.5;exitDx=0;exitDy=0;" edge="1" parent="1" source="XFEuG9OW1rMIU-cKfboV-33">
          <mxGeometry width="50" height="50" relative="1" as="geometry">
            <mxPoint x="312" y="-143" as="sourcePoint" />
            <mxPoint x="291" y="137" as="targetPoint" />
          </mxGeometry>
        </mxCell>
        <mxCell id="XFEuG9OW1rMIU-cKfboV-35" value="" style="endArrow=classic;html=1;rounded=0;fontSize=12;startSize=8;endSize=8;curved=1;exitX=1;exitY=0.79;exitDx=0;exitDy=0;exitPerimeter=0;entryX=0;entryY=0.21;entryDx=0;entryDy=0;entryPerimeter=0;" edge="1" parent="1" source="XFEuG9OW1rMIU-cKfboV-5">
          <mxGeometry width="50" height="50" relative="1" as="geometry">
            <mxPoint x="222" y="-24" as="sourcePoint" />
            <mxPoint x="352" y="233.52999999999997" as="targetPoint" />
          </mxGeometry>
        </mxCell>
        <mxCell id="XFEuG9OW1rMIU-cKfboV-36" value="DynamoDB for user, post, comment, like, and friend data" style="text;html=1;align=center;verticalAlign=middle;whiteSpace=wrap;rounded=0;fontSize=16;" vertex="1" parent="1">
          <mxGeometry x="211" y="303" width="183" height="103" as="geometry" />
        </mxCell>
        <mxCell id="XFEuG9OW1rMIU-cKfboV-37" value="" style="endArrow=none;html=1;rounded=0;fontSize=12;startSize=8;endSize=8;curved=1;exitX=0.5;exitY=0;exitDx=0;exitDy=0;" edge="1" parent="1" source="XFEuG9OW1rMIU-cKfboV-36">
          <mxGeometry width="50" height="50" relative="1" as="geometry">
            <mxPoint x="442" y="20" as="sourcePoint" />
            <mxPoint x="303" y="235" as="targetPoint" />
          </mxGeometry>
        </mxCell>
        <mxCell id="XFEuG9OW1rMIU-cKfboV-38" value="" style="outlineConnect=0;dashed=0;verticalLabelPosition=bottom;verticalAlign=top;align=center;html=1;shape=mxgraph.aws3.s3;fillColor=#E05243;gradientColor=none;" vertex="1" parent="1">
          <mxGeometry x="347.5" y="-127" width="76.5" height="93" as="geometry" />
        </mxCell>
        <mxCell id="XFEuG9OW1rMIU-cKfboV-39" value="" style="endArrow=classic;html=1;rounded=0;fontSize=12;startSize=8;endSize=8;curved=1;exitX=0.5;exitY=0;exitDx=0;exitDy=0;exitPerimeter=0;entryX=0;entryY=0.5;entryDx=0;entryDy=0;entryPerimeter=0;" edge="1" parent="1" source="XFEuG9OW1rMIU-cKfboV-5" target="XFEuG9OW1rMIU-cKfboV-38">
          <mxGeometry width="50" height="50" relative="1" as="geometry">
            <mxPoint x="261" y="157" as="sourcePoint" />
            <mxPoint x="362" y="157" as="targetPoint" />
          </mxGeometry>
        </mxCell>
        <mxCell id="XFEuG9OW1rMIU-cKfboV-40" value="Another S3 bucket for user and post images" style="text;html=1;align=center;verticalAlign=middle;whiteSpace=wrap;rounded=0;fontSize=16;" vertex="1" parent="1">
          <mxGeometry x="368" y="-28" width="183" height="103" as="geometry" />
        </mxCell>
        <mxCell id="XFEuG9OW1rMIU-cKfboV-41" value="" style="endArrow=none;html=1;rounded=0;fontSize=12;startSize=8;endSize=8;curved=1;exitX=0;exitY=0.5;exitDx=0;exitDy=0;" edge="1" parent="1" source="XFEuG9OW1rMIU-cKfboV-40">
          <mxGeometry width="50" height="50" relative="1" as="geometry">
            <mxPoint x="456" y="250" as="sourcePoint" />
            <mxPoint x="288" y="24" as="targetPoint" />
          </mxGeometry>
        </mxCell>
        <mxCell id="XFEuG9OW1rMIU-cKfboV-43" value="" style="endArrow=classic;html=1;rounded=0;fontSize=12;startSize=8;endSize=8;curved=1;entryX=1;entryY=0.21;entryDx=0;entryDy=0;entryPerimeter=0;" edge="1" parent="1" target="XFEuG9OW1rMIU-cKfboV-44">
          <mxGeometry width="50" height="50" relative="1" as="geometry">
            <mxPoint x="-99" y="116" as="sourcePoint" />
            <mxPoint x="-136" y="175" as="targetPoint" />
          </mxGeometry>
        </mxCell>
        <mxCell id="XFEuG9OW1rMIU-cKfboV-44" value="" style="outlineConnect=0;dashed=0;verticalLabelPosition=bottom;verticalAlign=top;align=center;html=1;shape=mxgraph.aws3.api_gateway;fillColor=#D9A741;gradientColor=none;" vertex="1" parent="1">
          <mxGeometry x="-175.39" y="185" width="76.5" height="93" as="geometry" />
        </mxCell>
        <mxCell id="XFEuG9OW1rMIU-cKfboV-45" value="" style="endArrow=classic;html=1;rounded=0;fontSize=12;startSize=8;endSize=8;curved=1;exitX=1;exitY=0.8;exitDx=0;exitDy=0;exitPerimeter=0;entryX=1;entryY=0.21;entryDx=0;entryDy=0;entryPerimeter=0;" edge="1" parent="1" source="XFEuG9OW1rMIU-cKfboV-44" target="XFEuG9OW1rMIU-cKfboV-6">
          <mxGeometry width="50" height="50" relative="1" as="geometry">
            <mxPoint x="-128" y="125" as="sourcePoint" />
            <mxPoint x="-55" y="326" as="targetPoint" />
          </mxGeometry>
        </mxCell>
        <mxCell id="XFEuG9OW1rMIU-cKfboV-46" value="" style="endArrow=classic;html=1;rounded=0;fontSize=12;startSize=8;endSize=8;curved=1;exitX=0;exitY=0.21;exitDx=0;exitDy=0;exitPerimeter=0;entryX=0;entryY=0.8;entryDx=0;entryDy=0;entryPerimeter=0;" edge="1" parent="1" source="XFEuG9OW1rMIU-cKfboV-6" target="XFEuG9OW1rMIU-cKfboV-44">
          <mxGeometry width="50" height="50" relative="1" as="geometry">
            <mxPoint x="-89" y="269" as="sourcePoint" />
            <mxPoint x="-89" y="378" as="targetPoint" />
          </mxGeometry>
        </mxCell>
        <mxCell id="XFEuG9OW1rMIU-cKfboV-47" value="" style="endArrow=classic;html=1;rounded=0;fontSize=12;startSize=8;endSize=8;curved=1;exitX=0;exitY=0.21;exitDx=0;exitDy=0;exitPerimeter=0;" edge="1" parent="1" source="XFEuG9OW1rMIU-cKfboV-44">
          <mxGeometry width="50" height="50" relative="1" as="geometry">
            <mxPoint x="-89" y="126" as="sourcePoint" />
            <mxPoint x="-176" y="122" as="targetPoint" />
          </mxGeometry>
        </mxCell>
        <mxCell id="XFEuG9OW1rMIU-cKfboV-48" value="The user may access an API Gateway method to retrieve user, post, comment, like, and friend data" style="text;html=1;align=center;verticalAlign=middle;whiteSpace=wrap;rounded=0;fontSize=16;" vertex="1" parent="1">
          <mxGeometry x="-427" y="122.66" width="183" height="103" as="geometry" />
        </mxCell>
        <mxCell id="XFEuG9OW1rMIU-cKfboV-49" value="API Gateway calls a Lambda method to perform a RESTful request" style="text;html=1;align=center;verticalAlign=middle;whiteSpace=wrap;rounded=0;fontSize=16;" vertex="1" parent="1">
          <mxGeometry x="-427" y="282" width="183" height="103" as="geometry" />
        </mxCell>
        <mxCell id="XFEuG9OW1rMIU-cKfboV-50" value="" style="endArrow=none;html=1;rounded=0;fontSize=12;startSize=8;endSize=8;curved=1;entryX=1;entryY=0.5;entryDx=0;entryDy=0;" edge="1" parent="1" target="XFEuG9OW1rMIU-cKfboV-48">
          <mxGeometry width="50" height="50" relative="1" as="geometry">
            <mxPoint x="-179" y="174" as="sourcePoint" />
            <mxPoint x="-233" y="71" as="targetPoint" />
          </mxGeometry>
        </mxCell>
        <mxCell id="XFEuG9OW1rMIU-cKfboV-51" value="" style="endArrow=none;html=1;rounded=0;fontSize=12;startSize=8;endSize=8;curved=1;entryX=1;entryY=0.5;entryDx=0;entryDy=0;" edge="1" parent="1" target="XFEuG9OW1rMIU-cKfboV-49">
          <mxGeometry width="50" height="50" relative="1" as="geometry">
            <mxPoint x="-177" y="334" as="sourcePoint" />
            <mxPoint x="-234" y="184" as="targetPoint" />
          </mxGeometry>
        </mxCell>
        <mxCell id="XFEuG9OW1rMIU-cKfboV-53" value="" style="endArrow=classic;html=1;rounded=0;fontSize=12;startSize=8;endSize=8;curved=1;entryX=0.1;entryY=0.5;entryDx=0;entryDy=0;entryPerimeter=0;exitX=1.005;exitY=0.474;exitDx=0;exitDy=0;exitPerimeter=0;" edge="1" parent="1" source="XFEuG9OW1rMIU-cKfboV-52" target="XFEuG9OW1rMIU-cKfboV-7">
          <mxGeometry width="50" height="50" relative="1" as="geometry">
            <mxPoint x="656" y="72" as="sourcePoint" />
            <mxPoint x="706" y="22" as="targetPoint" />
          </mxGeometry>
        </mxCell>
        <mxCell id="XFEuG9OW1rMIU-cKfboV-54" value="Sends logs to CloudWatch" style="text;html=1;align=center;verticalAlign=middle;whiteSpace=wrap;rounded=0;fontSize=16;" vertex="1" parent="1">
          <mxGeometry x="625" y="-109" width="108" height="103" as="geometry" />
        </mxCell>
        <mxCell id="XFEuG9OW1rMIU-cKfboV-55" value="" style="endArrow=none;html=1;rounded=0;fontSize=12;startSize=8;endSize=8;curved=1;entryX=0.5;entryY=1;entryDx=0;entryDy=0;" edge="1" parent="1" target="XFEuG9OW1rMIU-cKfboV-54">
          <mxGeometry width="50" height="50" relative="1" as="geometry">
            <mxPoint x="679" y="59" as="sourcePoint" />
            <mxPoint x="725" y="9" as="targetPoint" />
          </mxGeometry>
        </mxCell>
        <mxCell id="XFEuG9OW1rMIU-cKfboV-56" style="edgeStyle=none;curved=1;rounded=0;orthogonalLoop=1;jettySize=auto;html=1;fontSize=12;startSize=8;endSize=8;entryX=0.99;entryY=0.869;entryDx=0;entryDy=0;entryPerimeter=0;exitX=0.003;exitY=0.848;exitDx=0;exitDy=0;exitPerimeter=0;" edge="1" parent="1" source="XFEuG9OW1rMIU-cKfboV-1" target="XFEuG9OW1rMIU-cKfboV-12">
          <mxGeometry relative="1" as="geometry">
            <mxPoint x="-88" y="34" as="sourcePoint" />
            <mxPoint x="42" y="32" as="targetPoint" />
          </mxGeometry>
        </mxCell>
        <mxCell id="XFEuG9OW1rMIU-cKfboV-57" value="The application is served to the user" style="text;html=1;align=center;verticalAlign=middle;whiteSpace=wrap;rounded=0;fontSize=16;" vertex="1" parent="1">
          <mxGeometry x="-94" y="161" width="86" height="103" as="geometry" />
        </mxCell>
        <mxCell id="XFEuG9OW1rMIU-cKfboV-58" value="" style="endArrow=none;html=1;rounded=0;fontSize=12;startSize=8;endSize=8;curved=1;entryX=0.47;entryY=0.016;entryDx=0;entryDy=0;entryPerimeter=0;" edge="1" parent="1" target="XFEuG9OW1rMIU-cKfboV-57">
          <mxGeometry width="50" height="50" relative="1" as="geometry">
            <mxPoint x="-53" y="101" as="sourcePoint" />
            <mxPoint x="-43" y="33" as="targetPoint" />
          </mxGeometry>
        </mxCell>
      </root>
    </mxGraphModel>
  </diagram>
</mxfile>
